<svg width="62" height="62" viewBox="0 0 62 62" fill="none" xmlns="http://www.w3.org/2000/svg">
<path d="M60.2799 24.9999V30.2799H53.6839C53.5039 24.5599 51.2059 19.3779 47.5419 15.4759L52.2119 10.8059L55.9439 14.5379L56.9639 13.5199L48.4799 5.03591L47.4599 6.05391L51.1939 9.78791L46.5239 14.4579C42.6219 10.7939 37.4379 8.49791 31.7199 8.31791V1.71991H36.9999V0.279907H24.9999V1.71991H30.2799V8.31791C24.5599 8.49791 19.3759 10.7939 15.4739 14.4579L10.8039 9.78591L14.5379 6.05191L13.5199 5.03591L5.03591 13.5199L6.05391 14.5379L9.78791 10.8039L14.4579 15.4739C10.7939 19.3759 8.49791 24.5599 8.31791 30.2799H1.71991V24.9999H0.279907V36.9999H1.71991V31.7199H8.31791C8.49791 37.4379 10.7939 42.6219 14.4579 46.5239L9.78791 51.1939L6.05191 47.4599L5.03391 48.4799L13.5199 56.9639L14.5379 55.9439L10.8059 52.2119L15.4759 47.5419C19.3779 51.2059 24.5619 53.5019 30.2799 53.6839V60.2799H24.9999V61.7219H36.9999V60.2799H31.7199V53.6839C37.4379 53.5039 42.6219 51.2079 46.5239 47.5439L51.1939 52.2139L47.4619 55.9459L48.4819 56.9659L56.9659 48.4819L55.9459 47.4619L52.2139 51.1939L47.5439 46.5239C51.2079 42.6219 53.5039 37.4379 53.6839 31.7199H60.2799V36.9999H61.7219V24.9999H60.2799ZM30.9999 52.2799C19.2659 52.2799 9.71991 42.7359 9.71991 30.9999C9.71991 19.2659 19.2659 9.71991 30.9999 9.71991C42.7339 9.71991 52.2799 19.2659 52.2799 30.9999C52.2799 42.7339 42.7339 52.2799 30.9999 52.2799ZM30.9999 26.2799C28.3979 26.2799 26.2799 28.3979 26.2799 30.9999C26.2799 33.6039 28.3979 35.7199 30.9999 35.7199C33.6039 35.7199 35.7199 33.6019 35.7199 30.9999C35.7199 28.3979 33.6039 26.2799 30.9999 26.2799ZM30.9999 34.2799C29.1919 34.2799 27.7199 32.8099 27.7199 30.9999C27.7199 29.1899 29.1919 27.7199 30.9999 27.7199C32.8079 27.7199 34.2799 29.1919 34.2799 30.9999C34.2799 32.8079 32.8079 34.2799 30.9999 34.2799ZM20.9999 16.2799C18.3979 16.2799 16.2799 18.3979 16.2799 20.9999C16.2799 23.6019 18.3979 25.7199 20.9999 25.7199C23.6019 25.7199 25.7199 23.6019 25.7199 20.9999C25.7199 18.3979 23.6019 16.2799 20.9999 16.2799ZM20.9999 24.2799C19.1919 24.2799 17.7199 22.8079 17.7199 20.9999C17.7199 19.1919 19.1919 17.7199 20.9999 17.7199C22.8079 17.7199 24.2799 19.1919 24.2799 20.9999C24.2799 22.8079 22.8079 24.2799 20.9999 24.2799ZM19.7199 30.9999C19.7199 29.4999 18.4999 28.2799 16.9999 28.2799C15.4999 28.2799 14.2799 29.4999 14.2799 30.9999C14.2799 32.4999 15.4999 33.7199 16.9999 33.7199C18.4999 33.7199 19.7199 32.4999 19.7199 30.9999ZM15.7199 30.9999C15.7199 30.2939 16.2939 29.7199 16.9999 29.7199C17.7059 29.7199 18.2799 30.2939 18.2799 30.9999C18.2799 31.7059 17.7059 32.2799 16.9999 32.2799C16.2939 32.2799 15.7199 31.7059 15.7199 30.9999ZM42.2799 30.9999C42.2799 32.4999 43.4999 33.7199 44.9999 33.7199C46.4999 33.7199 47.7199 32.4999 47.7199 30.9999C47.7199 29.4999 46.4999 28.2799 44.9999 28.2799C43.4999 28.2799 42.2799 29.4999 42.2799 30.9999ZM46.2799 30.9999C46.2799 31.7059 45.7059 32.2799 44.9999 32.2799C44.2939 32.2799 43.7199 31.7059 43.7199 30.9999C43.7199 30.2939 44.2939 29.7199 44.9999 29.7199C45.7059 29.7199 46.2799 30.2939 46.2799 30.9999ZM30.9999 19.7199C32.4999 19.7199 33.7199 18.4999 33.7199 16.9999C33.7199 15.4999 32.4999 14.2799 30.9999 14.2799C29.4999 14.2799 28.2799 15.4999 28.2799 16.9999C28.2799 18.4999 29.4999 19.7199 30.9999 19.7199ZM30.9999 15.7199C31.7059 15.7199 32.2799 16.2939 32.2799 16.9999C32.2799 17.7059 31.7059 18.2799 30.9999 18.2799C30.2939 18.2799 29.7199 17.7059 29.7199 16.9999C29.7199 16.2939 30.2939 15.7199 30.9999 15.7199ZM30.9999 42.2799C29.4999 42.2799 28.2799 43.4999 28.2799 44.9999C28.2799 46.4999 29.4999 47.7199 30.9999 47.7199C32.4999 47.7199 33.7199 46.4999 33.7199 44.9999C33.7199 43.4999 32.4999 42.2799 30.9999 42.2799ZM30.9999 46.2799C30.2939 46.2799 29.7199 45.7059 29.7199 44.9999C29.7199 44.2939 30.2939 43.7199 30.9999 43.7199C31.7059 43.7199 32.2799 44.2939 32.2799 44.9999C32.2799 45.7059 31.7059 46.2799 30.9999 46.2799ZM40.9999 25.7199C43.6039 25.7199 45.7199 23.6019 45.7199 20.9999C45.7199 18.3979 43.6039 16.2799 40.9999 16.2799C38.3959 16.2799 36.2799 18.3979 36.2799 20.9999C36.2799 23.6019 38.3959 25.7199 40.9999 25.7199ZM40.9999 17.7199C42.8079 17.7199 44.2799 19.1919 44.2799 20.9999C44.2799 22.8079 42.8099 24.2799 40.9999 24.2799C39.1899 24.2799 37.7199 22.8079 37.7199 20.9999C37.7199 19.1919 39.1919 17.7199 40.9999 17.7199ZM20.9999 36.2799C18.3979 36.2799 16.2799 38.3979 16.2799 40.9999C16.2799 43.6019 18.3979 45.7199 20.9999 45.7199C23.6019 45.7199 25.7199 43.6019 25.7199 40.9999C25.7199 38.3979 23.6019 36.2799 20.9999 36.2799ZM20.9999 44.2799C19.1919 44.2799 17.7199 42.8099 17.7199 40.9999C17.7199 39.1899 19.1919 37.7199 20.9999 37.7199C22.8079 37.7199 24.2799 39.1899 24.2799 40.9999C24.2799 42.8099 22.8079 44.2799 20.9999 44.2799ZM40.9999 36.2799C38.3959 36.2799 36.2799 38.3979 36.2799 40.9999C36.2799 43.6019 38.3979 45.7199 40.9999 45.7199C43.6019 45.7199 45.7199 43.6019 45.7199 40.9999C45.7199 38.3979 43.6039 36.2799 40.9999 36.2799ZM40.9999 44.2799C39.1919 44.2799 37.7199 42.8099 37.7199 40.9999C37.7199 39.1899 39.1899 37.7199 40.9999 37.7199C42.8099 37.7199 44.2799 39.1899 44.2799 40.9999C44.2799 42.8099 42.8079 44.2799 40.9999 44.2799Z" fill="#F1F2F4"/>
</svg>
