<svg width="62" height="60" viewBox="0 0 62 60" fill="none" xmlns="http://www.w3.org/2000/svg">
<path d="M29.6399 50.6399C29.7679 50.8619 29.7679 51.1359 29.6399 51.3579L25.0199 59.3579L23.7739 58.6399L27.7699 51.7199H24.3979C24.1419 51.7199 23.9019 51.5819 23.7739 51.3579C23.6459 51.1359 23.6459 50.8619 23.7739 50.6399L28.3939 42.6399L29.6399 43.3579L25.6439 50.2779H29.0159C29.2719 50.2799 29.5099 50.4179 29.6399 50.6399ZM2.96191 10.2939L5.63791 11.8399C5.75191 11.9059 5.87591 11.9359 5.99791 11.9359C6.24791 11.9359 6.48991 11.8079 6.62191 11.5759C6.81991 11.2319 6.70191 10.7899 6.35791 10.5919L3.68391 9.04591C3.33791 8.84991 2.89791 8.96591 2.69991 9.30991C2.50191 9.65391 2.61991 10.0959 2.96191 10.2939ZM4.80991 18.3399C4.80991 17.9419 4.48791 17.6199 4.08991 17.6199H0.999907C0.601907 17.6199 0.279907 17.9419 0.279907 18.3399C0.279907 18.7379 0.601907 19.0599 0.999907 19.0599H4.08991C4.48791 19.0599 4.80991 18.7379 4.80991 18.3399ZM7.84191 19.0599C8.23991 19.0599 8.56191 18.7379 8.56191 18.3399C8.56191 12.9479 12.9479 8.55991 18.3419 8.55991C19.7059 8.55991 20.5819 8.62991 21.5879 9.01191C21.9599 9.15391 22.3759 8.96591 22.5159 8.59591C22.6579 8.22391 22.4719 7.80791 22.0999 7.66791C20.7699 7.16391 19.6119 7.12191 18.3439 7.12191C12.1579 7.12191 7.12591 12.1539 7.12591 18.3399C7.12191 18.7379 7.44391 19.0599 7.84191 19.0599ZM18.3399 4.80991C18.7379 4.80991 19.0599 4.48791 19.0599 4.08991V0.999907C19.0599 0.601907 18.7379 0.279907 18.3399 0.279907C17.9419 0.279907 17.6219 0.601907 17.6219 0.999907V4.08991C17.6219 4.48791 17.9439 4.80991 18.3399 4.80991ZM13.3759 42.3759C13.0319 42.1739 12.5899 42.2939 12.3919 42.6399L7.77191 50.6399C7.57191 50.9839 7.68991 51.4239 8.03391 51.6219C8.14791 51.6879 8.27191 51.7199 8.39391 51.7199C8.64391 51.7199 8.88591 51.5919 9.01791 51.3579L13.6359 43.3579C13.8379 43.0159 13.7199 42.5759 13.3759 42.3759ZM10.5919 6.35991C10.7259 6.58991 10.9679 6.71991 11.2159 6.71991C11.3379 6.71991 11.4619 6.68991 11.5759 6.62391C11.9199 6.42391 12.0379 5.98391 11.8399 5.63991L10.2939 2.96191C10.0959 2.61991 9.65391 2.49991 9.30991 2.69991C8.96591 2.89991 8.84791 3.33991 9.04591 3.68391L10.5919 6.35991ZM21.3759 42.3759C21.0339 42.1739 20.5899 42.2939 20.3919 42.6399L15.7719 50.6399C15.5719 50.9839 15.6899 51.4239 16.0339 51.6219C16.1479 51.6879 16.2719 51.7199 16.3939 51.7199C16.6439 51.7199 16.8859 51.5919 17.0179 51.3579L21.6359 43.3579C21.8379 43.0159 21.7199 42.5759 21.3759 42.3759ZM61.7199 28.5159C61.7199 34.6939 56.6919 39.7219 50.5139 39.7219H13.7099C8.50791 39.7219 4.27791 35.4679 4.27791 30.2379C4.27791 25.0099 8.50791 20.7559 13.7099 20.7559C14.9979 20.7559 16.2759 21.0219 17.4579 21.5319C18.6759 13.9079 25.2179 8.28191 33.0779 8.28191C39.4299 8.28191 45.0419 11.9619 47.5599 17.7159C48.5319 17.4479 49.5219 17.3139 50.5159 17.3139C56.6939 17.3119 61.7199 22.3379 61.7199 28.5159ZM60.2799 28.5159C60.2799 23.1319 55.9019 18.7519 50.5159 18.7519C49.4619 18.7519 48.4039 18.9279 47.3799 19.2779C47.0079 19.4059 46.6159 19.2159 46.4759 18.8579C44.3159 13.3079 39.0579 9.72191 33.0799 9.72191C25.6179 9.72191 19.4619 15.2999 18.7619 22.6959C18.7379 22.9399 18.5939 23.1539 18.3779 23.2679C18.1619 23.3839 17.9039 23.3759 17.6899 23.2539C16.4779 22.5619 15.1019 22.1959 13.7139 22.1959C9.30591 22.1959 5.72191 25.8039 5.72191 30.2379C5.72191 34.6719 9.30591 38.2799 13.7139 38.2799H50.5179C55.8999 38.2799 60.2799 33.8999 60.2799 28.5159ZM25.1059 6.62391C25.2199 6.68991 25.3439 6.71991 25.4659 6.71991C25.7159 6.71991 25.9579 6.59191 26.0899 6.35991L27.6359 3.68391C27.8339 3.33991 27.7159 2.89791 27.3719 2.69991C27.0279 2.49991 26.5859 2.61991 26.3879 2.96391L24.8439 5.63991C24.6439 5.98391 24.7619 6.42391 25.1059 6.62391ZM44.9399 43.0759C44.6579 42.7939 44.2019 42.7939 43.9199 43.0759L43.0159 43.9799L42.1119 43.0759C41.8299 42.7939 41.3739 42.7939 41.0919 43.0759C40.8099 43.3579 40.8099 43.8139 41.0919 44.0959L41.9959 44.9999L41.0919 45.9039C40.8099 46.1859 40.8099 46.6419 41.0919 46.9239C41.2319 47.0639 41.4179 47.1339 41.6019 47.1339C41.7859 47.1339 41.9719 47.0639 42.1119 46.9239L43.0159 46.0199L43.9199 46.9239C44.0599 47.0639 44.2459 47.1339 44.4299 47.1339C44.6139 47.1339 44.7999 47.0639 44.9399 46.9239C45.2219 46.6419 45.2219 46.1859 44.9399 45.9039L44.0359 44.9999L44.9399 44.0959C45.2199 43.8139 45.2199 43.3579 44.9399 43.0759ZM50.9399 51.0759C50.6579 50.7939 50.2019 50.7939 49.9199 51.0759L49.0159 51.9799L48.1119 51.0759C47.8299 50.7939 47.3739 50.7939 47.0919 51.0759C46.8099 51.3579 46.8099 51.8139 47.0919 52.0959L47.9959 52.9999L47.0919 53.9039C46.8099 54.1859 46.8099 54.6419 47.0919 54.9239C47.2319 55.0639 47.4179 55.1339 47.6019 55.1339C47.7859 55.1339 47.9719 55.0639 48.1119 54.9239L49.0159 54.0199L49.9199 54.9239C50.0599 55.0639 50.2459 55.1339 50.4299 55.1339C50.6139 55.1339 50.7999 55.0639 50.9399 54.9239C51.2219 54.6419 51.2219 54.1859 50.9399 53.9039L50.0359 52.9999L50.9399 52.0959C51.2199 51.8139 51.2199 51.3579 50.9399 51.0759ZM40.9399 51.0759C40.6579 50.7939 40.2019 50.7939 39.9199 51.0759L39.0159 51.9799L38.1119 51.0759C37.8299 50.7939 37.3739 50.7939 37.0919 51.0759C36.8099 51.3579 36.8099 51.8139 37.0919 52.0959L37.9959 52.9999L37.0919 53.9039C36.8099 54.1859 36.8099 54.6419 37.0919 54.9239C37.2319 55.0639 37.4179 55.1339 37.6019 55.1339C37.7859 55.1339 37.9719 55.0639 38.1119 54.9239L39.0159 54.0199L39.9199 54.9239C40.0599 55.0639 40.2459 55.1339 40.4299 55.1339C40.6139 55.1339 40.7999 55.0639 40.9399 54.9239C41.2219 54.6419 41.2219 54.1859 40.9399 53.9039L40.0359 52.9999L40.9399 52.0959C41.2199 51.8139 41.2199 51.3579 40.9399 51.0759ZM54.9239 43.0919C54.6419 42.8099 54.1859 42.8099 53.9039 43.0919L52.9999 43.9959L52.0959 43.0919C51.8139 42.8099 51.3579 42.8099 51.0759 43.0919C50.7939 43.3739 50.7939 43.8299 51.0759 44.1119L51.9799 45.0159L51.0759 45.9199C50.7939 46.2019 50.7939 46.6579 51.0759 46.9399C51.2159 47.0799 51.4019 47.1499 51.5859 47.1499C51.7699 47.1499 51.9559 47.0799 52.0959 46.9399L52.9999 46.0359L53.9039 46.9399C54.0439 47.0799 54.2299 47.1499 54.4139 47.1499C54.5979 47.1499 54.7839 47.0799 54.9239 46.9399C55.2059 46.6579 55.2059 46.2019 54.9239 45.9199L54.0199 45.0159L54.9239 44.1119C55.2059 43.8299 55.2059 43.3739 54.9239 43.0919Z" fill="#F1F2F4"/>
</svg>
