<svg width="92" height="28" viewBox="0 0 92 28" fill="none" xmlns="http://www.w3.org/2000/svg">
<path d="M70.7071 20.6397V27.8066H67.3804V10.9103H71.7337C72.907 10.9103 73.7906 10.9789 74.3844 11.1127C74.7028 11.1958 74.9818 11.2898 75.2179 11.3946C75.2644 11.409 75.386 11.4741 75.5899 11.5897C75.7938 11.7054 75.919 11.7813 75.9619 11.8211C76.2588 12.0632 76.5128 12.3054 76.7203 12.5547C77.4035 13.4402 77.7433 14.4956 77.7433 15.728C77.7433 15.9304 77.7362 16.1364 77.7219 16.346C77.5895 17.8531 77.0029 18.988 75.9619 19.7434C75.5613 20.0361 75.1356 20.2421 74.6885 20.3614C74.2377 20.4806 73.762 20.5602 73.2576 20.5963C72.8713 20.618 72.4527 20.6324 72.0056 20.6361C71.5549 20.6361 71.1256 20.6397 70.7071 20.6397ZM70.8752 17.5785C71.2973 17.5785 71.7981 17.5604 72.3776 17.5242C72.9571 17.4881 73.3864 17.3724 73.669 17.1881C74.0016 16.9713 74.1698 16.552 74.1698 15.9268C74.1698 15.5581 74.1233 15.2545 74.0267 15.016C73.8407 14.604 73.4043 14.3293 72.7139 14.1956C72.2703 14.1124 71.655 14.0727 70.8788 14.0727V17.5785H70.8752Z" fill="#D6D9DD"/>
<path d="M87.4444 14.0474V27.803H83.9567V14.0474H79.75L80.4511 10.9103H90.9285L91.6296 14.0474H87.4444Z" fill="#D6D9DD"/>
<path fill-rule="evenodd" clip-rule="evenodd" d="M38.184 22.2986C38.302 22.5913 38.3879 22.8479 38.4988 23.0901C38.7885 23.7225 39.1748 24.2755 39.8759 24.4924C40.5413 24.6984 41.2138 24.749 41.8791 24.4815C42.5051 24.2321 42.8628 23.7804 42.9559 23.0973C43.056 22.3383 42.7627 21.7709 42.1438 21.395C41.364 20.9252 40.5556 20.5095 39.7543 20.0758C38.8207 19.5735 37.955 18.9807 37.1788 18.2507C36.4419 17.5531 36.0377 16.7074 35.9518 15.681C35.8517 14.4955 36.0842 13.4076 36.7996 12.4571C37.8728 11.0331 39.3 10.3031 41.0922 10.3537C41.8469 10.3753 42.5803 10.4802 43.2921 10.7512C44.2257 11.1054 44.9233 11.7487 45.4813 12.5619C45.7675 12.9812 45.7639 12.9812 45.3919 13.3137C44.8124 13.8305 44.2329 14.351 43.6534 14.8714C43.5854 14.9328 43.5139 14.9907 43.4173 15.0666C43.2885 14.8931 43.1705 14.7304 43.0489 14.5714C42.5803 13.9823 42.0544 13.4799 41.2424 13.4546C40.4805 13.4293 39.5182 13.9317 39.4682 14.9039C39.4431 15.4135 39.6542 15.8147 40.0405 16.0858C40.7094 16.5556 41.4105 16.9749 42.0973 17.4194C42.9666 17.9832 43.8394 18.5434 44.7051 19.1144C45.8175 19.8481 46.397 20.8999 46.5115 22.2299C46.6331 23.6611 46.372 24.9803 45.3883 26.0718C44.6442 26.8958 43.7178 27.4307 42.6554 27.7198C41.8362 27.9439 41.0099 28.074 40.1585 27.9548C38.0981 27.6656 36.5814 26.6139 35.7086 24.6803C35.68 24.6189 35.6979 24.4851 35.748 24.4418C36.5421 23.7334 37.3433 23.0358 38.184 22.2986Z" fill="#D6D9DD"/>
<path fill-rule="evenodd" clip-rule="evenodd" d="M7.77141 19.989C8.0075 19.4144 8.24001 18.8397 8.4761 18.2687C9.49915 15.8038 10.5222 13.3389 11.556 10.8777C11.5918 10.7909 11.7205 10.6898 11.81 10.6861C12.8473 10.6753 13.8811 10.6789 14.9185 10.6789C14.9507 10.6789 14.9793 10.6898 15.0759 10.7114C12.6327 16.4544 10.2003 22.1828 7.76783 27.9077C7.74279 27.9113 7.71775 27.9149 7.69271 27.9186C5.2567 22.1937 2.82068 16.4652 0.370361 10.7078C0.466943 10.697 0.524177 10.6825 0.584988 10.6789C1.59731 10.6789 2.60963 10.6825 3.62196 10.6753C3.79724 10.6717 3.87951 10.7476 3.9439 10.8994C5.08142 13.6389 6.22252 16.3785 7.36004 19.1216C7.48166 19.4108 7.58897 19.7035 7.70344 19.9963C7.7249 19.9927 7.74994 19.9927 7.77141 19.989Z" fill="#D6D9DD"/>
<path fill-rule="evenodd" clip-rule="evenodd" d="M52.1598 20.9216C52.1598 18.6845 52.1562 16.4509 52.1633 14.2173C52.1633 13.9571 52.0918 13.8957 51.8665 13.8993C50.7254 13.9101 49.5843 13.9065 48.4432 13.9029C48.1856 13.9029 48.1606 13.874 48.2178 13.6029C48.4038 12.6921 48.5934 11.7814 48.7937 10.8742C48.8116 10.7983 48.9261 10.7369 49.0048 10.6863C49.0405 10.6646 49.0978 10.6826 49.1479 10.6826C52.2564 10.6826 55.3648 10.6863 58.4733 10.6754C58.7059 10.6754 58.8096 10.7369 58.8597 11.0007C59.0242 11.8789 59.2067 12.7572 59.3998 13.6282C59.4535 13.8776 59.3676 13.9065 59.1745 13.9065C58.0405 13.8993 56.9102 13.9101 55.7762 13.8993C55.533 13.8957 55.465 13.9716 55.465 14.239C55.4722 18.7025 55.4686 23.1624 55.4686 27.626C55.4686 27.9693 55.4686 27.9693 55.1502 27.9693C54.2488 27.9693 53.3509 27.9621 52.4495 27.9766C52.2242 27.9802 52.149 27.9187 52.1526 27.6585C52.1633 25.4069 52.1598 23.1661 52.1598 20.9216Z" fill="#D6D9DD"/>
<path fill-rule="evenodd" clip-rule="evenodd" d="M38.1733 5.53238C37.7619 5.92994 37.3613 6.32027 36.9607 6.71061C36.7782 6.89132 36.5958 7.06841 36.4241 7.25996C36.3311 7.36477 36.2739 7.372 36.1666 7.27081C35.1328 6.26606 34.006 5.3842 32.7433 4.69389C32.0922 4.33608 31.4018 4.04333 30.7186 3.74336C29.8601 3.36748 28.9551 3.12894 28.0394 2.96631C26.7051 2.73138 25.3601 2.57236 24.0008 2.72777C23.3426 2.80367 22.6737 2.83619 22.0262 2.96269C21.2822 3.11087 20.5417 3.30604 19.8227 3.54819C18.1987 4.10116 16.6964 4.90713 15.3442 5.97331C14.8398 6.37087 14.3748 6.81542 13.8955 7.24189C13.8096 7.31779 13.7488 7.39369 13.6343 7.27803C13.062 6.69615 12.4861 6.11788 11.9102 5.53599C11.8995 5.52515 11.8995 5.50708 11.8959 5.48901C18.1701 -1.19363 30.2894 -2.45498 38.1733 5.53238Z" fill="#D6D9DD"/>
<path fill-rule="evenodd" clip-rule="evenodd" d="M15.6517 9.25504C16.8608 8.06235 18.2201 7.11543 19.769 6.44319C20.9459 5.93359 22.1585 5.59024 23.4284 5.44929C24.7805 5.29749 26.1291 5.33364 27.4741 5.59024C30.0568 6.08177 32.2817 7.26723 34.1955 9.07433C34.3708 9.24058 34.3708 9.34178 34.1991 9.51164C33.6911 10.0068 33.1975 10.5164 32.7038 11.0296C32.5715 11.1669 32.4892 11.185 32.3461 11.0404C31.5878 10.2562 30.7042 9.64175 29.7313 9.16829C28.5973 8.61171 27.4169 8.21053 26.147 8.11295C25.8429 8.08765 25.5425 8.04067 25.242 8.03705C24.0186 8.01175 22.831 8.20331 21.6684 8.59725C20.302 9.05625 19.0893 9.77186 18.0019 10.7116C17.866 10.8308 17.7479 10.9718 17.6084 11.0874C17.5655 11.1236 17.4403 11.1308 17.4081 11.0947C16.825 10.5128 16.2491 9.92005 15.6732 9.33093C15.6625 9.31286 15.6625 9.29118 15.6517 9.25504Z" fill="#D6D9DD"/>
<path fill-rule="evenodd" clip-rule="evenodd" d="M25.0238 18.8181C24.5587 18.341 24.1331 17.9073 23.711 17.47C23.5679 17.3218 23.4284 17.17 23.2781 17.0291C23.1529 16.917 23.1637 16.8375 23.2924 16.7327C24.1402 16.0316 25.0774 15.9159 26.079 16.3207C26.3294 16.4219 26.5476 16.6134 26.7801 16.7652C26.8982 16.8411 26.8767 16.9134 26.7873 17.0038C26.2078 17.5965 25.6354 18.1892 25.0238 18.8181Z" fill="#D6D9DD"/>
<path fill-rule="evenodd" clip-rule="evenodd" d="M61.7679 27.8029C61.31 27.3367 60.8987 26.9102 60.4837 26.4874C60.3442 26.3428 60.2083 26.1946 60.0581 26.0573C59.9364 25.9452 59.9472 25.8693 60.0724 25.7681C60.9022 25.0814 61.818 24.9694 62.7945 25.367C63.0413 25.4682 63.2524 25.6561 63.4778 25.8043C63.5922 25.8802 63.5708 25.9488 63.4849 26.0356C62.9269 26.6102 62.3653 27.1885 61.7679 27.8029Z" fill="#D6D9DD"/>
<path fill-rule="evenodd" clip-rule="evenodd" d="M32.425 14.1957C30.9476 12.0778 28.9087 10.8165 26.3439 10.4478C24.5983 10.1948 22.9349 10.4406 21.3324 11.1851C19.6476 11.9694 18.3383 13.1693 17.3797 14.7668C16.7823 15.7607 16.4425 16.8413 16.2887 17.9942C16.1348 19.1761 16.1849 20.3254 16.4854 21.4313C16.7644 20.376 17.7123 19.599 18.8427 19.599C19.1968 19.599 19.5331 19.6748 19.8372 19.8122C19.8085 19.5484 19.7942 19.2773 19.7978 19.0062C19.8157 18.0629 20.0124 17.1702 20.4882 16.3498C21.1535 15.2077 22.1372 14.4307 23.3356 13.9464C24.7736 13.3645 26.1758 13.5452 27.5136 14.2752C28.8586 15.0089 29.7457 16.1329 30.15 17.6256C30.5756 19.2014 30.4147 20.7302 29.5311 22.1036C28.3721 23.9035 26.698 24.8468 24.5518 24.6155C23.1424 24.4637 22.0085 23.8492 21.1607 22.8373C20.8387 23.8203 19.923 24.5287 18.8427 24.5287C18.5208 24.5287 18.2167 24.4637 17.9341 24.3516C19.6189 26.6755 22.0228 27.8429 25.0848 27.9152C25.235 27.9152 25.3888 27.9188 25.5391 27.9152C27.9214 27.814 29.9318 26.8743 31.5736 25.1395C32.7756 23.8673 33.5267 22.3566 33.8165 20.6145C34.2064 18.2834 33.77 16.1185 32.425 14.1957Z" fill="#D6D9DD"/>
<path fill-rule="evenodd" clip-rule="evenodd" d="M20.5094 22.136C20.5094 23.1263 19.7153 23.9322 18.7316 23.9322C17.7479 23.9322 16.9537 23.1299 16.9537 22.136C16.9537 21.1421 17.7479 20.3397 18.7316 20.3397C19.7153 20.3397 20.5094 21.1421 20.5094 22.136Z" fill="#D6D9DD"/>
<path fill-rule="evenodd" clip-rule="evenodd" d="M29.4273 22.2696C28.2719 23.961 26.6371 24.8393 24.5588 24.6116C23.1494 24.4598 22.0155 23.8454 21.1677 22.8334C20.8458 23.8165 19.93 24.5249 18.8498 24.5249C18.5278 24.5249 18.2238 24.4598 17.9412 24.3478C19.626 26.6717 22.0298 27.8391 25.0918 27.9114C25.2421 27.9114 25.3959 27.915 25.5461 27.9114C27.9285 27.8102 29.9388 26.8705 31.5807 25.1357C32.3856 24.2863 32.9865 23.3286 33.3836 22.266H29.4273V22.2696Z" fill="#D6D9DD"/>
</svg>
