<?xml version="1.0" encoding="UTF-8" standalone="no"?>
<svg
   xmlns:mapsvg="http://mapsvg.com"
   xmlns:dc="http://purl.org/dc/elements/1.1/"
   xmlns:cc="http://creativecommons.org/ns#"
   xmlns:rdf="http://www.w3.org/1999/02/22-rdf-syntax-ns#"
   xmlns:svg="http://www.w3.org/2000/svg"
   xmlns="http://www.w3.org/2000/svg"
   xmlns:sodipodi="http://sodipodi.sourceforge.net/DTD/sodipodi-0.dtd"
   xmlns:inkscape="http://www.inkscape.org/namespaces/inkscape"
   mapsvg:geoViewBox="-31.265662 42.156380 -6.189321 30.138063"
   width="197.42999"
   height="112.13"
   version="1.1"
   id="svg78"
   sodipodi:docname="portugal_açores.svg"
   inkscape:version="1.0.2 (e86c8708, 2021-01-15)">
  <metadata
     id="metadata84">
    <rdf:RDF>
      <cc:Work
         rdf:about="">
        <dc:format>image/svg+xml</dc:format>
        <dc:type
           rdf:resource="http://purl.org/dc/dcmitype/StillImage" />
        <dc:title></dc:title>
      </cc:Work>
    </rdf:RDF>
  </metadata>
  <defs
     id="defs82" />
  <sodipodi:namedview
     pagecolor="#ffffff"
     bordercolor="#666666"
     borderopacity="1"
     objecttolerance="10"
     gridtolerance="10"
     guidetolerance="10"
     inkscape:pageopacity="0"
     inkscape:pageshadow="2"
     inkscape:window-width="1680"
     inkscape:window-height="997"
     id="namedview80"
     showgrid="false"
     inkscape:zoom="2.3939518"
     inkscape:cx="43.7387"
     inkscape:cy="61.460054"
     inkscape:window-x="0"
     inkscape:window-y="25"
     inkscape:window-maximized="1"
     inkscape:current-layer="svg78"
     inkscape:snap-page="true" />
  <path
     d="m 195.78,108.79 0.28,0.16 -0.02,0.95 1.22,0.98 -0.13,0.22 0.3,0.91 -0.48,-0.12 -1.37,0.24 -0.55,-0.64 -0.54,-0.19 -1.24,0.52 -0.22,-0.23 -0.35,0.22 -0.37,-0.18 -0.62,-1.47 0.07,-0.42 0.42,-0.35 0.82,-0.39 0.37,0.38 0.2,-0.24 0.41,0.15 0.27,-0.39 0.66,-0.12 0.49,0.2 z m -23.01,-35.41 2.06,0.87 0.67,0.96 0.18,0.72 0.4,-0.02 0.15,0.37 1.15,0.3 0.36,-0.22 1.42,0.79 0.11,-0.21 0.67,0.16 1.09,-0.37 1.43,-1.12 0.45,1.1 0.6,-0.11 0.28,0.17 0.24,-0.35 0.23,0.29 0.62,-0.04 0.28,-0.33 0.4,0.09 1.5,-0.7 0.4,-0.57 0.75,0.45 1.09,-0.26 0.7,0.32 2.19,-0.21 0.94,0.36 0.33,0.99 0.03,0.67 -0.31,0.56 0.16,0.86 -0.98,1.22 -1.29,0.28 -1.27,-0.37 -0.77,0.23 -0.41,0.5 -0.29,-0.09 -0.72,0.33 -0.95,-0.06 -0.62,0.39 -1.77,-0.18 -0.5,0.19 -1.3,-0.27 -0.94,0.37 -1.75,-1.42 -0.51,0.1 -1.36,-0.43 -0.46,0.33 -0.53,0.23 -1.37,0.02 -4.45,-3.64 -0.44,-0.98 -0.04,-0.38 0.28,-0.5 0.55,-0.32 0.17,-0.69 0.55,0.11 z m -82.56,-26.17 0.59,0.06 1.94,0.89 1.07,1.22 1.75,0.34 0.26,0.43 0.94,0.46 0.31,0.53 4.19,0.78 0.71,0.55 0.2,0.74 -1.67,0.48 -3.08,-0.38 -0.52,0.51 -1.29,0.55 -0.5,-0.16 -0.11,-0.71 -0.51,-0.35 -2.96,-0.01 -1.58,-0.67 -0.33,0.28 -0.59,0.03 -2.24,-1.26 -0.74,-1.36 0.01,-1.4 0.15,-0.56 1.25,-0.88 0.59,-0.19 0.88,0.21 z m -9.48,-3.46 1.42,0.54 0.47,0.53 0.84,0.26 0.74,0.73 -0.4,1.23 0.27,0.66 -0.73,0.37 0.07,0.89 -0.29,-0.1 0.01,-0.29 -2.39,0.27 -1.42,-0.18 0.05,-0.73 -0.37,-0.99 -0.58,-0.02 -1.54,-1.08 -0.06,-0.52 1.37,-0.33 1.11,0.06 0.83,-1.09 z m 12.67,-4.37 1.35,0.39 5.79,2.59 0.66,0.21 0.45,0.15 0.67,0.03 1.45,1.12 0.42,0.04 0.96,0.73 0.47,0.36 1.02,0.31 2,1.2 0.76,0.17 1.43,1.12 -0.65,0.5 -1.72,0.08 -3.63,-2.27 -2.52,-0.47 -1.42,-1.07 L 99.780003,44.39 97.11,43.01 96.66,42.63 96.1,42.53 96.2,42.07 95.92,42.03 95.9,41.66 94.35,40.77 93.07,39.46 Z m 33.27,-1.9 0.61,0.13 0.15,0.27 0.34,-0.12 0.08,-0.27 0.4,0.21 0.17,-0.02 1.67,0.29 0.24,0.05 0.21,0.23 0.84,-0.18 1.28,0.98 0.15,0.71 0.45,0.29 -0.44,0.17 -0.11,0.31 0.61,1.14 -0.45,0.44 v 0.31 l -0.59,0.25 -0.1,1.11 -0.62,-0.17 -1.39,0.17 -0.82,-0.39 -1.22,-0.01 -0.43,0.05 0.11,0.4 -0.32,0.19 -0.25,-0.23 0.16,-0.43 -1.19,-0.06 -0.28,0.18 -2.34,-1.37 -0.55,-0.78 -0.27,-0.87 -0.06,-0.79 0.23,-0.52 0.08,-0.25 0.24,-0.62 0.95,-0.49 z m -24.64,-11.86 1.2,0.41 1.25,2 0.15,0.98 -0.64,0.17 -0.76,-0.15 -0.44,-0.48 -0.75,0.04 -0.45,-0.4 -0.79,-1.45 0.56,-0.58 0.12,-0.44 z M 4.59,10.99 3.96,11.76 4.17,12.2 3.77,12.35 3.8,12.97 3.16,14.17 2.43,14.35 0.59,14.18 0.31,13.35 0.54,13.06 0.17,12.47 0.26,11.69 0,11.18 0.34,10.72 0.28,9.65 1.07,8.79 0.97,8.34 1.86,8.17 2.08,8.79 H 2.36 L 2.29,9 3.21,9.23 3.44,9.01 3.8,10.2 4.19,10.64 4.46,10.62 Z M 5.24,0 5.69,0.23 5.85,1.13 5.66,1.6 4.71,2.27 4.39,0.95 4.59,0 Z"
     title="Açores"
     id="PT-Aç"
     style="fill:#d3e1f8;fill-opacity:1;stroke:#1e66de;stroke-opacity:1" />
</svg>
